<?xml version="1.0" standalone="no"?>
<!DOCTYPE svg PUBLIC "-//W3C//DTD SVG 20010904//EN"
 "http://www.w3.org/TR/2001/REC-SVG-20010904/DTD/svg10.dtd">
<svg version="1.0" xmlns="http://www.w3.org/2000/svg"
 width="256.000000pt" height="256.000000pt" viewBox="0 0 256.000000 256.000000"
 preserveAspectRatio="xMidYMid meet">

<g transform="translate(0.000000,256.000000) scale(0.100000,-0.100000)"
fill="#bf0f02" stroke="none">
<path d="M0 1280 l0 -1280 1280 0 1280 0 0 1280 0 1280 -1280 0 -1280 0 0
-1280z m2139 962 c118 -59 122 -185 9 -308 -24 -26 -108 -104 -188 -173 l-144
-126 163 -3 c189 -3 199 0 226 75 10 26 20 55 24 63 9 23 13 -165 3 -202 l-8
-33 -222 -3 c-122 -1 -222 -5 -222 -9 0 -6 77 -254 87 -280 4 -11 -18 -13
-123 -11 l-129 3 -41 120 -41 119 -40 -119 c-33 -100 -43 -121 -61 -123 -12
-2 -22 0 -22 3 0 4 48 153 106 331 83 251 110 324 123 324 12 0 28 -34 60
-132 24 -73 46 -136 50 -140 7 -8 264 226 301 274 40 52 61 115 62 187 1 84
-20 133 -67 155 -60 29 -155 16 -202 -27 -32 -29 -29 -47 6 -47 33 0 61 -30
61 -66 0 -27 -44 -64 -75 -64 -12 0 -34 9 -49 21 -39 31 -37 96 5 144 39 45
60 56 129 72 75 17 154 8 219 -25z m-1125 -382 c147 -37 253 -115 302 -222 23
-52 28 -77 29 -143 0 -71 -4 -88 -33 -147 -18 -37 -46 -78 -63 -92 -27 -23
-39 -26 -110 -26 -43 0 -79 1 -79 3 0 1 10 27 22 57 20 48 23 73 23 205 0 136
-2 155 -23 200 -56 122 -111 145 -344 145 l-158 0 0 -305 0 -306 -117 3 -118
3 -3 302 -2 302 -103 3 c-88 3 -102 5 -105 21 -3 16 21 17 401 17 370 0 410
-2 481 -20z m-434 -1281 l0 -302 188 5 c170 4 193 7 235 27 106 51 151 159
152 361 0 69 -3 144 -8 168 l-7 42 109 0 109 0 14 -42 15 -43 187 -3 188 -2
-6 22 c-3 13 -9 33 -12 46 -6 22 -6 22 120 22 l125 0 96 -295 96 -295 105 0
c97 0 104 -1 104 -20 0 -20 -7 -20 -356 -20 -333 0 -355 1 -352 18 3 15 18 17
127 20 91 2 122 6 119 15 -3 7 -38 110 -79 229 l-74 218 -186 0 -186 0 -5 -92
c-4 -60 -13 -113 -27 -150 -26 -67 -95 -148 -160 -186 l-46 -27 130 -5 c107
-4 130 -8 130 -20 0 -18 -258 -26 -893 -29 -379 -1 -403 0 -400 16 3 16 17 18
106 21 l102 3 0 299 0 300 120 0 120 0 0 -301z"/>
</g>
</svg>
