<svg version="1.1" id="Layer_1" xmlns="http://www.w3.org/2000/svg" xmlns:xlink="http://www.w3.org/1999/xlink" x="0px" y="0px"
	 width="100%" viewBox="0 0 496 496" enable-background="new 0 0 496 496" xml:space="preserve">
<path fill="#000000" opacity="1.000000" stroke="none" 
	d="
M99.907730,281.000702 
	C99.901138,276.003510 100.026688,271.500977 99.848518,267.010468 
	C99.700348,263.275726 100.929810,261.504730 104.978310,261.633484 
	C111.967026,261.855774 118.975197,261.881195 125.961273,261.618561 
	C130.238464,261.457733 131.354446,263.253113 131.327621,267.229401 
	C131.195023,286.883545 131.425995,306.541077 131.168289,326.192719 
	C131.103745,331.114777 132.248077,333.070007 137.508789,332.724457 
	C149.287292,331.950897 161.113342,333.341339 172.918655,331.883423 
	C186.992477,330.145386 195.467529,322.233032 199.512146,309.033051 
	C203.387466,296.385590 203.059601,283.417755 202.300629,270.429565 
	C202.203705,268.770844 201.918243,267.123871 201.754257,265.468109 
	C201.514359,263.045654 202.409195,261.696259 205.066727,261.714020 
	C212.561630,261.764130 220.057526,261.773834 227.552185,261.705841 
	C231.028488,261.674316 231.487747,264.342316 232.109787,266.688293 
	C239.162155,293.285461 230.506348,324.352631 195.288727,335.110016 
	C185.497711,338.100769 175.360550,339.022491 165.231125,339.093201 
	C136.916183,339.290833 108.598625,339.113678 80.282097,339.080536 
	C79.283188,339.079376 78.281601,339.075562 77.286003,339.005585 
	C75.273560,338.864014 73.754425,338.250671 73.746376,335.775085 
	C73.738197,333.259918 75.209999,332.701996 77.288216,332.697540 
	C82.951340,332.685364 88.631363,332.383972 94.272194,332.728790 
	C98.797920,333.005402 99.979652,331.212036 99.932594,326.972351 
	C99.764343,311.816864 99.892403,296.658081 99.907730,281.000702 
z"/>
<path fill="#000000" opacity="1.000000" stroke="none" 
	d="
M210.733154,209.375427 
	C204.472214,209.376633 198.679840,209.376633 192.277481,209.376633 
	C193.193909,203.510330 195.530609,198.694717 196.030746,193.426575 
	C197.072998,182.447708 197.560287,171.485031 195.139908,160.676865 
	C191.374939,143.864395 182.031235,136.903778 162.918320,136.432114 
	C153.929886,136.210297 144.927780,136.541122 135.939438,136.317551 
	C132.044083,136.220688 131.178894,137.881607 131.197449,141.381454 
	C131.306091,161.866898 131.260086,182.353195 131.250488,202.839203 
	C131.247437,209.358521 131.225372,209.367905 124.539940,209.377274 
	C118.210930,209.386139 111.872314,209.158737 105.556160,209.441925 
	C101.164139,209.638840 99.758820,208.009308 99.798370,203.673859 
	C99.982208,183.522461 99.919456,163.368683 99.916618,143.215759 
	C99.915657,136.394043 99.877594,136.391083 92.975998,136.381241 
	C88.145966,136.374344 83.314957,136.432602 78.486336,136.348953 
	C76.441658,136.313522 73.799217,136.890915 73.792679,133.484756 
	C73.786011,130.014099 76.491890,130.689606 78.493561,130.685791 
	C102.976807,130.639145 127.460381,130.713730 151.943405,130.628006 
	C165.267639,130.581329 178.575150,130.241821 191.408005,134.872269 
	C207.285355,140.601257 220.438126,149.392929 225.526276,166.488831 
	C229.466034,179.726288 227.944458,192.489578 220.044968,204.172119 
	C217.912964,207.325104 215.567719,210.049805 210.733154,209.375427 
z"/>
<path fill="#000000" opacity="1.000000" stroke="none" 
	d="
M297.282013,290.169800 
	C293.242432,302.538177 289.307068,314.524750 285.429504,326.335205 
	C287.279144,328.558533 289.424011,327.880432 291.306976,327.901611 
	C299.303070,327.991699 307.301178,327.903046 315.297363,327.989777 
	C317.550171,328.014160 320.267944,327.700317 320.233673,331.315063 
	C320.197662,335.113159 317.321747,334.300110 315.174286,334.306274 
	C295.847992,334.361816 276.521393,334.364105 257.195068,334.317078 
	C254.850525,334.311371 251.725082,335.042114 251.848801,331.025055 
	C251.958496,327.463959 254.811508,328.008270 257.027435,327.965240 
	C262.357056,327.861664 267.699921,327.708862 273.017700,327.973083 
	C276.880127,328.164978 278.630615,326.545380 279.780121,322.989899 
	C285.821259,304.304169 292.047791,285.678284 298.241974,267.042236 
	C300.365112,260.654449 301.260162,260.375214 307.057373,264.049561 
	C308.424042,264.915771 309.951355,264.725250 311.425995,264.727692 
	C326.587189,264.752747 341.748535,264.763245 356.909668,264.719696 
	C358.631256,264.714752 360.630280,265.288055 361.648438,262.973724 
	C362.430634,261.195831 364.213287,261.726318 365.630554,261.717285 
	C373.460785,261.667267 381.296021,261.846008 389.119995,261.618439 
	C392.611969,261.516876 394.149841,262.977020 395.165222,266.114594 
	C401.158997,284.635315 407.447998,303.062134 413.268372,321.636261 
	C414.765991,326.415375 416.960876,328.440338 422.059418,328.040131 
	C427.355621,327.624390 432.714783,327.949799 438.044495,328.051880 
	C440.122437,328.091675 442.122681,328.462524 442.151306,331.277496 
	C442.180969,334.194458 440.187897,334.331116 438.068420,334.331390 
	C410.744904,334.334900 383.421356,334.338654 356.097839,334.339294 
	C353.961578,334.339355 351.983429,334.076263 351.920776,331.270782 
	C351.850189,328.107819 354.131836,327.954193 356.376770,327.939636 
	C363.373932,327.894257 370.372467,327.839539 377.368500,327.933929 
	C381.283722,327.986725 382.449768,326.517639 381.161346,322.724304 
	C375.809631,306.968018 370.535858,291.184906 365.325867,275.381165 
	C364.282593,272.216522 362.439148,270.980408 359.073059,271.004517 
	C342.080017,271.126160 325.085144,271.131531 308.092194,271.005371 
	C304.646759,270.979767 302.933075,272.379303 302.000244,275.540131 
	C300.587646,280.326477 298.936157,285.042267 297.282013,290.169800 
z"/>
<path fill="#000000" opacity="1.000000" stroke="none" 
	d="
M358.004822,209.375778 
	C343.188202,209.372299 343.198364,209.368851 338.617920,195.859299 
	C337.129730,191.469955 335.573273,187.103760 333.503540,181.164536 
	C330.488831,190.039764 327.803253,197.429520 325.498657,204.936234 
	C324.239685,209.037048 322.128540,210.322571 318.241119,208.655869 
	C317.704193,206.577225 318.656525,204.910110 319.216614,203.206467 
	C327.060181,179.348480 334.913635,155.493668 342.848236,131.665878 
	C343.525360,129.632401 343.552277,126.702805 346.881104,126.795570 
	C350.114563,126.885689 350.137878,129.736862 350.825684,131.802750 
	C358.598022,155.147644 366.319458,178.509567 373.994446,201.886658 
	C374.704712,204.049911 375.955261,206.166443 375.148163,209.375336 
	C369.722168,209.375336 364.112640,209.375336 358.004822,209.375778 
z"/>
<path fill="#000000" opacity="1.000000" stroke="none" 
	d="
M366.964783,91.553444 
	C369.583130,81.502846 381.571289,78.030785 390.707886,78.215248 
	C393.667908,78.275009 396.692291,78.756287 399.552307,79.538239 
	C412.502167,83.078842 416.770599,93.225700 410.218689,104.985222 
	C405.999908,112.557167 399.134308,117.778870 392.891785,123.498192 
	C387.615387,128.332336 382.064423,132.866348 376.653656,137.554764 
	C375.941559,138.171768 374.930054,138.663940 375.294037,140.479248 
	C384.582275,140.479248 394.002899,140.759964 403.391632,140.335297 
	C406.938568,140.174835 408.839142,136.919907 410.076294,133.608017 
	C410.864746,131.497391 410.751495,128.955887 413.180176,127.034576 
	C415.222839,130.555923 414.460663,134.235443 414.074738,137.595993 
	C412.291290,153.126541 415.892883,150.056625 400.925842,150.332703 
	C390.935455,150.516968 380.938751,150.437180 370.945984,150.349014 
	C368.938080,150.331284 366.288391,151.331818 365.195587,148.677231 
	C364.015778,145.811188 365.520721,143.610260 367.619476,141.653305 
	C375.170532,134.612442 382.554230,127.388062 390.216492,120.471634 
	C398.221924,113.245468 401.753571,104.454926 400.831512,93.727432 
	C400.193848,86.308304 396.904816,82.278824 389.431030,81.643799 
	C383.559326,81.144890 377.905670,82.377937 373.952728,87.144424 
	C374.229980,88.981468 375.400757,88.815147 376.319489,89.011200 
	C380.176514,89.834274 382.144470,92.436630 381.964783,96.142952 
	C381.776123,100.034195 379.057404,101.917908 375.310120,102.318420 
	C371.347717,102.741936 368.338531,101.314911 367.157379,97.376518 
	C366.651886,95.691055 366.937653,93.768288 366.964783,91.553444 
z"/>
<path fill="#000000" opacity="1.000000" stroke="none" 
	d="
M237.433762,225.868958 
	C241.259659,226.927261 242.948776,228.929031 242.016800,232.637573 
	C241.829315,233.383621 241.912033,234.270264 242.110580,235.029190 
	C243.767044,241.360657 242.460266,243.165497 235.999252,243.345322 
	C235.166489,243.368500 234.332809,243.362381 233.499557,243.363220 
	C226.819305,243.370010 226.819260,243.369522 226.797684,236.822281 
	C226.796585,236.488968 226.791870,236.155563 226.798065,235.822372 
	C226.989410,225.533585 224.775986,225.421448 237.433762,225.868958 
M235.818588,236.487259 
	C234.403351,236.477875 232.495956,235.896683 232.537994,238.204147 
	C232.565857,239.733185 234.111710,239.713715 235.234024,239.550858 
	C237.025711,239.290863 238.212448,238.584412 235.818588,236.487259 
z"/>
<path fill="#000000" opacity="1.000000" stroke="none" 
	d="
M67.845657,229.326859 
	C68.090683,232.271057 67.493950,234.797806 68.776360,237.404572 
	C69.738365,239.360016 68.475166,241.500732 66.530380,242.378586 
	C62.603268,244.151260 58.403774,243.398331 54.300056,242.983963 
	C53.822941,242.935806 53.088844,242.177277 53.035992,241.687424 
	C52.519371,236.899139 52.242458,232.063919 53.141068,227.324112 
	C53.495071,225.456879 61.471497,224.952393 64.787193,226.358887 
	C66.059029,226.898392 67.053734,227.722000 67.845657,229.326859 
M59.103996,239.562393 
	C60.623745,239.482620 62.444225,240.216553 63.263802,238.006149 
	C62.260818,235.769348 60.373005,236.141006 58.737385,236.737289 
	C57.409367,237.221451 57.259747,238.365189 59.103996,239.562393 
z"/>
<path fill="#000000" opacity="1.000000" stroke="none" 
	d="
M150.934189,236.545288 
	C148.060089,242.627823 140.804810,245.465714 134.941666,243.175415 
	C132.419479,242.190201 132.760056,239.923874 133.001266,238.109848 
	C133.540817,234.052307 130.650787,228.661453 134.931580,226.150009 
	C141.919220,222.050522 150.839081,227.997314 150.934189,236.545288 
M141.121353,239.231232 
	C142.940079,238.842133 144.742844,238.300522 145.389343,236.331284 
	C146.128174,234.080795 145.729187,231.934265 143.463791,230.822327 
	C141.848343,230.029434 139.276566,229.533203 138.795883,231.639145 
	C138.229431,234.120789 136.475769,237.500458 141.121353,239.231232 
z"/>
<path fill="#000000" opacity="1.000000" stroke="none" 
	d="
M116.636436,232.083466 
	C116.845314,230.821320 116.918495,229.828293 117.009239,228.836853 
	C117.158501,227.206039 117.687988,225.848816 119.643532,225.895874 
	C121.569595,225.942215 122.156700,227.275497 122.174408,228.928741 
	C122.213539,232.581467 122.228912,236.235382 122.174866,239.887650 
	C122.155312,241.208817 122.056702,242.634171 120.425331,243.102524 
	C119.008812,243.509171 117.773117,243.053848 116.821617,241.992020 
	C115.063385,240.029877 113.366524,238.012741 111.437393,235.779221 
	C109.803284,237.575409 110.549530,239.458069 110.311096,241.106049 
	C110.121651,242.415543 109.640594,243.313736 108.153191,243.282501 
	C106.787674,243.253815 105.876022,242.591156 105.851303,241.213440 
	C105.773926,236.900345 105.369392,232.532043 105.904266,228.287552 
	C106.366104,224.622696 108.816643,225.617691 110.939339,227.253326 
	C112.941597,228.796143 113.396904,232.025787 116.636436,232.083466 
z"/>
<path fill="#000000" opacity="1.000000" stroke="none" 
	d="
M254.462921,226.520844 
	C258.582458,225.446869 262.369659,225.171249 266.013763,226.727615 
	C270.034088,228.444656 271.820251,231.670074 271.165344,235.907288 
	C270.520386,240.080185 268.005676,242.743225 263.637299,243.289230 
	C254.294067,244.457031 253.626740,243.904251 253.649475,234.743362 
	C253.656021,232.110657 253.274948,229.439667 254.462921,226.520844 
M258.336456,234.554871 
	C258.328522,236.772308 258.239197,239.109543 261.479218,238.912384 
	C263.878265,238.766434 265.590302,237.594147 265.806976,235.035797 
	C266.014130,232.590714 264.951660,230.854126 262.404785,230.407547 
	C259.826385,229.955429 258.188782,230.805023 258.336456,234.554871 
z"/>
<path fill="#000000" opacity="1.000000" stroke="none" 
	d="
M280.796204,232.427826 
	C283.370453,226.909973 286.816345,224.867279 291.908142,225.793976 
	C295.775269,226.497772 298.638855,228.511032 299.353516,232.731216 
	C299.987427,236.474579 299.125000,239.726837 295.959503,241.991516 
	C292.724304,244.306030 289.143829,244.501617 285.591278,242.779480 
	C281.442383,240.768204 280.139587,237.238190 280.796204,232.427826 
M288.993744,239.224228 
	C293.523956,238.514618 295.543549,236.196823 294.252991,233.115097 
	C293.485992,231.283447 292.070007,230.295334 290.033295,230.308380 
	C287.951904,230.321701 286.631012,231.567764 285.873962,233.277924 
	C284.687164,235.958740 286.316986,237.586243 288.993744,239.224228 
z"/>
<path fill="#000000" opacity="1.000000" stroke="none" 
	d="
M315.301758,236.999969 
	C318.133881,240.905212 319.905151,239.567551 320.661438,236.078171 
	C321.146362,233.840805 320.822937,231.434113 320.926910,229.106232 
	C320.997192,227.533142 321.326172,226.015930 323.325989,225.930267 
	C325.593750,225.833130 326.137329,227.418808 326.111115,229.226974 
	C326.070190,232.047089 326.122498,234.905792 325.676910,237.674393 
	C324.937683,242.267822 321.675415,244.033020 317.359253,243.794083 
	C313.209259,243.564346 310.434570,241.290878 309.911560,237.068909 
	C309.565979,234.279572 309.758759,231.418030 309.790405,228.589706 
	C309.806854,227.117050 310.400177,226.006943 312.103333,225.907333 
	C314.048615,225.793564 314.817413,226.960480 314.918884,228.645111 
	C315.078796,231.299881 315.112305,233.962250 315.301758,236.999969 
z"/>
<path fill="#000000" opacity="1.000000" stroke="none" 
	d="
M203.616898,230.648773 
	C204.795547,228.305710 205.171249,225.689072 208.301682,225.780090 
	C211.445908,225.871536 211.675812,228.576599 212.565704,230.577805 
	C214.296722,234.470520 216.535858,238.183167 217.310379,242.486450 
	C213.123093,245.434448 211.576462,239.843872 207.952347,239.894928 
	C204.499710,239.943588 203.022888,245.112289 199.020706,242.476395 
	C199.507812,238.249878 202.101898,234.856339 203.616898,230.648773 
z"/>
<path fill="#000000" opacity="1.000000" stroke="none" 
	d="
M371.894165,231.136292 
	C373.477478,235.128281 375.674866,238.488251 376.387756,242.347824 
	C372.211823,245.391235 370.718658,240.159897 367.446198,239.911301 
	C363.750580,239.630554 362.351288,244.655731 357.973206,242.508392 
	C359.359253,236.855133 361.659241,231.465347 364.927216,226.686981 
	C366.683044,224.119614 369.563782,225.910812 371.894165,231.136292 
z"/>
<path fill="#000000" opacity="1.000000" stroke="none" 
	d="
M92.368713,242.993668 
	C88.945618,239.413574 85.706192,238.780533 82.217575,242.207794 
	C80.999466,243.404495 79.675636,243.629425 77.287483,242.287506 
	C79.511719,237.320587 81.484886,232.107071 84.155319,227.279221 
	C85.567093,224.726883 88.437424,225.082031 89.803780,227.584885 
	C92.028374,231.659851 93.796730,235.996796 95.570908,240.300156 
	C96.732773,243.118317 94.867805,243.372101 92.368713,242.993668 
z"/>
<path fill="#000000" opacity="1.000000" stroke="none" 
	d="
M171.045059,232.686081 
	C172.658142,232.865463 173.841156,233.136871 173.667313,234.731903 
	C173.531372,235.979263 172.467728,236.108002 171.470245,236.313293 
	C169.815598,236.653854 167.725555,235.577133 166.447403,237.998550 
	C167.664993,240.563400 170.089020,239.331848 171.986862,239.566956 
	C173.285889,239.727905 174.873962,239.446915 174.952408,241.357651 
	C175.031311,243.280075 173.448517,243.202164 172.137558,243.334595 
	C171.808319,243.367859 171.467972,243.396759 171.143173,243.351974 
	C167.952972,242.912186 163.330200,245.033432 161.835403,242.062500 
	C159.641281,237.701645 160.716415,232.348022 161.381073,227.425262 
	C161.564194,226.069077 162.905624,225.785065 164.113937,225.766586 
	C166.768539,225.725937 169.425217,225.698349 172.078766,225.761337 
	C173.456970,225.794037 174.858582,226.103622 174.793747,227.919281 
	C174.733002,229.620468 173.444382,229.941422 172.024185,230.137009 
	C170.321213,230.371582 168.359116,229.529816 166.911850,231.214172 
	C167.565735,233.398804 169.373276,232.338409 171.045059,232.686081 
z"/>
<path fill="#000000" opacity="1.000000" stroke="none" 
	d="
M387.816589,236.964371 
	C389.313812,234.815506 391.396515,233.482315 391.842621,231.076401 
	C391.518463,230.794327 391.315063,230.505615 391.040222,230.396088 
	C389.143311,229.640259 385.431305,231.366425 385.741455,227.700424 
	C386.025665,224.341644 389.464722,225.776001 391.458313,225.814377 
	C394.280487,225.868668 398.225037,224.092773 399.715240,227.091888 
	C401.355835,230.393661 397.177338,232.353409 395.706268,234.986511 
	C395.080200,236.107162 393.664032,236.707932 393.515564,238.246902 
	C394.640076,239.611160 396.276794,238.861053 397.642609,239.194992 
	C398.910675,239.505066 400.534943,239.471710 400.534882,241.269241 
	C400.534790,243.444839 398.726746,243.292343 397.265167,243.335403 
	C394.943665,243.403824 392.613312,243.473145 390.297882,243.342941 
	C388.592987,243.247055 386.323822,244.160995 385.443329,241.954819 
	C384.634308,239.927811 386.569244,238.694122 387.816589,236.964371 
z"/>
<path fill="#000000" opacity="1.000000" stroke="none" 
	d="
M431.467529,230.543396 
	C430.023590,230.257019 428.860687,230.190948 427.725861,229.976318 
	C426.641846,229.771317 425.999207,229.048340 425.967438,227.904861 
	C425.925110,226.381821 426.960175,225.973404 428.206848,225.809860 
	C428.371033,225.788330 428.539001,225.750641 428.701202,225.765213 
	C432.549286,226.111053 437.813538,223.795975 439.900696,227.010269 
	C442.059784,230.335342 436.987396,232.949936 435.113495,235.892426 
	C434.674408,236.581879 434.018707,237.150574 434.311493,238.281372 
	C434.419037,238.371643 434.634308,238.629578 434.909485,238.770859 
	C436.877594,239.781616 440.997498,238.056305 440.608368,241.710266 
	C440.301971,244.587433 436.696472,243.356735 434.614471,243.273819 
	C431.667511,243.156448 427.570312,245.055832 426.026062,241.834702 
	C424.588623,238.836304 428.590515,236.931290 430.103424,234.488815 
	C430.833344,233.310349 432.547394,232.544708 431.467529,230.543396 
z"/>
<path fill="#000000" opacity="1.000000" stroke="none" 
	d="
M349.784058,242.240356 
	C346.436798,244.081390 343.098083,243.103043 339.842651,243.307663 
	C339.680298,243.317871 339.514709,243.273544 339.350433,243.256256 
	C336.791992,242.986938 336.560242,241.005417 336.835938,239.215683 
	C337.511536,234.829590 334.770874,229.855377 338.626160,226.126785 
	C339.712250,225.076401 341.513153,226.263367 341.852692,228.041397 
	C342.098175,229.326828 342.131409,230.673965 342.092499,231.988647 
	C341.967438,236.213684 341.455170,240.603775 348.095642,239.543213 
	C349.360718,239.341171 350.159729,240.414749 349.784058,242.240356 
z"/>
<path fill="#000000" opacity="1.000000" stroke="none" 
	d="
M116.914040,363.209473 
	C117.588203,358.686066 120.581322,359.558105 123.084221,360.110413 
	C125.774742,360.704132 126.985275,362.780914 126.112213,365.396149 
	C125.521362,367.166077 125.818108,368.931213 125.486099,371.041168 
	C122.938881,369.978027 120.446724,366.763153 118.231110,371.138336 
	C116.047180,368.596130 117.114845,366.019409 116.914040,363.209473 
z"/>
<path fill="#000000" opacity="1.000000" stroke="none" 
	d="
M371.724670,363.159973 
	C372.403778,358.572510 375.504791,359.551270 377.927673,360.104736 
	C380.502411,360.692871 381.886200,362.730499 380.926483,365.419556 
	C380.295532,367.187408 380.435516,368.944336 380.527222,370.609314 
	C378.312592,371.407440 377.813446,369.291748 376.456482,368.859741 
	C374.567444,368.258453 374.440460,371.018433 372.391174,370.590759 
	C371.020813,368.509644 371.931244,365.972809 371.724670,363.159973 
z"/>
<path fill="#000000" opacity="1.000000" stroke="none" 
	d="
M412.977539,243.133926 
	C409.977875,242.392151 410.767090,240.234192 410.707855,238.574142 
	C410.589905,235.267670 410.677399,231.952515 410.734192,228.641876 
	C410.754791,227.443649 411.027496,226.278122 412.479187,226.029861 
	C413.306610,225.888367 414.099884,226.016907 414.706024,226.747498 
	C416.169983,228.512100 415.226929,240.955673 412.977539,243.133926 
z"/>
<path fill="#000000" opacity="1.000000" stroke="none" 
	d="
M161.834534,360.940948 
	C164.466721,359.337158 164.940872,361.455322 165.572815,362.803436 
	C166.725372,365.262146 167.627899,367.838043 168.323410,370.756866 
	C164.646469,368.611420 161.377563,368.913818 157.883362,371.809448 
	C157.708893,367.212158 160.208084,364.408417 161.834534,360.940948 
z"/>
<path fill="#000000" opacity="1.000000" stroke="none" 
	d="
M300.484924,363.218353 
	C300.460602,362.092834 300.348175,361.240234 301.492554,360.468811 
	C303.083435,363.943665 302.184845,367.276642 302.010315,370.604858 
	C298.505737,371.049072 298.506470,367.329773 296.177887,366.845673 
	C294.646698,367.692413 296.160583,370.324066 293.515228,370.808655 
	C291.954254,367.449066 292.610657,364.041565 293.168518,360.395813 
	C296.989471,360.476868 297.093262,364.812622 299.870361,365.727570 
	C300.797150,365.179108 300.452057,364.295807 300.484924,363.218353 
z"/>
<path fill="#000000" opacity="1.000000" stroke="none" 
	d="
M235.612381,361.588379 
	C238.894730,359.188110 239.814819,359.166931 243.338486,361.045563 
	C242.717072,364.055817 239.370407,361.660797 238.171432,363.547607 
	C238.936783,365.390289 241.076645,363.962433 242.039474,365.366913 
	C241.669769,367.283630 238.544342,365.559357 238.654556,368.970734 
	C238.922531,370.581482 241.742950,368.843170 242.821350,370.279724 
	C236.755798,372.959198 234.828873,371.744568 235.147018,365.412476 
	C235.204987,364.259003 235.410858,363.112946 235.612381,361.588379 
z"/>
<path fill="#000000" opacity="1.000000" stroke="none" 
	d="
M393.062012,370.247314 
	C393.700439,367.562561 396.169067,370.544250 397.235687,368.162262 
	C396.512756,365.803772 390.152557,365.406006 393.672699,361.084869 
	C395.480499,358.865692 397.982971,359.350464 400.080780,361.091492 
	C399.641205,363.192291 397.750702,362.550873 396.884186,363.476746 
	C397.398407,371.713074 397.398407,371.713074 393.062012,370.247314 
z"/>
<path fill="#000000" opacity="1.000000" stroke="none" 
	d="
M279.293152,369.181946 
	C276.820404,372.077820 273.803528,372.354126 271.629364,370.264069 
	C268.802979,367.547058 269.248352,363.938019 270.603973,360.329071 
	C272.631134,361.211761 272.217224,362.514038 272.338074,363.581329 
	C272.571075,365.639130 272.000153,368.601135 275.064880,368.469696 
	C277.935883,368.346558 277.474030,365.436096 277.660278,363.345276 
	C277.745392,362.389679 277.565002,361.336823 278.797424,360.523651 
	C281.069641,363.140076 280.132294,365.983337 279.293152,369.181946 
z"/>
<path fill="#000000" opacity="1.000000" stroke="none" 
	d="
M335.598572,364.791626 
	C336.897186,363.245239 336.777710,360.959015 340.082001,360.156158 
	C339.139221,364.556183 337.386688,367.962311 335.152832,371.979706 
	C331.247833,368.766479 330.075226,364.895569 329.214142,360.572083 
	C333.152527,360.299683 331.513916,366.066895 335.598572,364.791626 
z"/>
<path fill="#000000" opacity="1.000000" stroke="none" 
	d="
M351.753174,370.618561 
	C350.799866,368.391541 350.972717,366.403442 351.198303,364.444458 
	C351.785400,359.345215 354.319458,358.295258 359.171722,361.103027 
	C358.400635,363.359009 355.674408,361.634460 354.605896,363.368927 
	C354.915436,365.486115 357.361511,363.923523 358.120209,365.413483 
	C357.622192,367.112122 354.785400,365.908661 354.634247,368.307800 
	C355.059540,370.612152 357.965881,368.773224 359.087402,370.696930 
	C356.651123,371.749817 354.336700,371.611267 351.753174,370.618561 
z"/>
<path fill="#000000" opacity="1.000000" stroke="none" 
	d="
M213.731262,363.393616 
	C213.522339,362.157990 212.753021,361.160370 214.135742,360.399323 
	C216.545624,361.223206 216.439011,364.175110 218.286255,365.581940 
	C221.007309,364.950897 220.201202,361.049042 223.834045,360.235321 
	C223.198044,364.593994 221.347504,367.970154 219.384506,371.559479 
	C215.432053,370.166199 215.420746,366.382904 213.731262,363.393616 
z"/>
<path fill="#000000" opacity="1.000000" stroke="none" 
	d="
M414.059265,371.035706 
	C411.885773,368.121643 412.588531,365.067993 412.906982,362.222260 
	C413.246826,359.185425 416.682312,358.788055 420.658234,361.115509 
	C420.072479,363.789459 416.934540,361.692932 415.915894,363.563660 
	C416.494202,365.281769 418.424438,364.102722 419.372345,365.460419 
	C418.996338,366.840088 416.475342,366.085999 416.481720,368.554260 
	C416.575653,370.207520 419.228455,369.108612 420.361938,370.652710 
	C418.264496,371.711151 416.360596,371.360962 414.059265,371.035706 
z"/>
<path fill="#000000" opacity="1.000000" stroke="none" 
	d="
M101.150253,362.959686 
	C98.795288,363.332031 97.011276,364.058777 97.725586,366.499817 
	C98.698738,369.825439 101.699509,369.245026 104.347458,369.787994 
	C101.960449,371.757996 99.323746,372.155701 96.943321,370.015015 
	C94.159409,367.511505 94.043465,364.335388 96.689201,361.677551 
	C99.136581,359.219025 101.987686,358.642029 104.705841,361.577454 
	C103.905571,363.275665 102.566093,362.683350 101.150253,362.959686 
z"/>
<path fill="#000000" opacity="1.000000" stroke="none" 
	d="
M145.728287,370.403687 
	C143.593063,371.881348 141.374298,371.532928 138.880936,370.762146 
	C138.752426,367.171265 137.307449,363.243500 139.903534,360.315918 
	C141.244324,358.803955 144.189697,359.364227 146.432281,360.470001 
	C145.866638,364.185974 142.292847,361.867798 140.888916,363.609436 
	C141.891388,365.612793 144.185455,363.724884 145.345413,365.281860 
	C144.930359,367.211304 141.605545,366.027924 141.692993,368.595703 
	C142.532791,370.219391 144.489151,369.128601 145.728287,370.403687 
z"/>
<path fill="#000000" opacity="1.000000" stroke="none" 
	d="
M186.137817,359.810638 
	C187.126770,360.136047 187.960159,361.027405 187.615204,361.165283 
	C183.155441,362.947449 184.888718,367.291046 183.694931,370.889099 
	C180.237976,368.151337 183.747009,362.805176 178.658676,361.142731 
	C181.248459,359.086395 183.603195,359.905762 186.137817,359.810638 
z"/>
<path fill="#000000" opacity="1.000000" stroke="none" 
	d="
M199.344788,364.622437 
	C199.588028,363.128448 199.774704,362.018738 199.961365,360.908997 
	C202.157654,364.203400 202.564148,367.519989 200.901672,371.436951 
	C198.238556,369.471893 199.366989,367.089447 199.344788,364.622437 
z"/>
<path fill="#000000" opacity="1.000000" stroke="none" 
	d="
M315.646362,362.400818 
	C316.143005,360.681335 317.048096,360.346039 317.438721,361.823364 
	C318.224884,364.796570 318.509521,367.862976 316.744415,371.193542 
	C314.059937,368.358032 315.580872,365.459198 315.646362,362.400818 
z"/>
</svg>